<mxfile host="www.draw.io" modified="2019-10-27T13:44:53.627Z" agent="Mozilla/5.0 (Windows NT 10.0; Win64; x64) AppleWebKit/537.36 (KHTML, like Gecko) Chrome/76.0.3809.132 Safari/537.36 OPR/63.0.3368.107" etag="47Wz7aUcloZo8-CjaJG7" version="12.1.7" type="github" pages="1">
  <diagram id="g-K5pwejZ-qYwhQE_Ga-" name="Page-1">
    <mxGraphModel dx="828" dy="1551" grid="1" gridSize="10" guides="1" tooltips="1" connect="1" arrows="1" fold="1" page="1" pageScale="1" pageWidth="850" pageHeight="1100" math="0" shadow="0">
      <root>
        <mxCell id="0"/>
        <mxCell id="1" parent="0"/>
        <mxCell id="69_leHM3C10nOmQzFwsW-4" value="" style="edgeStyle=orthogonalEdgeStyle;rounded=0;orthogonalLoop=1;jettySize=auto;html=1;startArrow=block;startFill=0;endArrow=none;endFill=0;" edge="1" parent="1" source="69_leHM3C10nOmQzFwsW-1" target="69_leHM3C10nOmQzFwsW-3">
          <mxGeometry relative="1" as="geometry"/>
        </mxCell>
        <mxCell id="69_leHM3C10nOmQzFwsW-1" value="Espectador" style="shape=umlActor;verticalLabelPosition=bottom;labelBackgroundColor=#ffffff;verticalAlign=top;html=1;outlineConnect=0;" vertex="1" parent="1">
          <mxGeometry x="100" y="150" width="30" height="60" as="geometry"/>
        </mxCell>
        <mxCell id="69_leHM3C10nOmQzFwsW-7" value="" style="edgeStyle=orthogonalEdgeStyle;rounded=0;orthogonalLoop=1;jettySize=auto;html=1;startArrow=block;startFill=0;endArrow=none;endFill=0;" edge="1" parent="1" source="69_leHM3C10nOmQzFwsW-3" target="69_leHM3C10nOmQzFwsW-6">
          <mxGeometry relative="1" as="geometry"/>
        </mxCell>
        <mxCell id="69_leHM3C10nOmQzFwsW-3" value="Lector" style="shape=umlActor;verticalLabelPosition=bottom;labelBackgroundColor=#ffffff;verticalAlign=top;html=1;outlineConnect=0;" vertex="1" parent="1">
          <mxGeometry x="100" y="290" width="30" height="60" as="geometry"/>
        </mxCell>
        <mxCell id="69_leHM3C10nOmQzFwsW-9" value="" style="edgeStyle=orthogonalEdgeStyle;rounded=0;orthogonalLoop=1;jettySize=auto;html=1;startArrow=block;startFill=0;endArrow=none;endFill=0;" edge="1" parent="1" source="69_leHM3C10nOmQzFwsW-6" target="69_leHM3C10nOmQzFwsW-8">
          <mxGeometry relative="1" as="geometry"/>
        </mxCell>
        <mxCell id="69_leHM3C10nOmQzFwsW-6" value="Moderador" style="shape=umlActor;verticalLabelPosition=bottom;labelBackgroundColor=#ffffff;verticalAlign=top;html=1;outlineConnect=0;" vertex="1" parent="1">
          <mxGeometry x="100" y="430" width="30" height="60" as="geometry"/>
        </mxCell>
        <mxCell id="69_leHM3C10nOmQzFwsW-8" value="Administrador" style="shape=umlActor;verticalLabelPosition=bottom;labelBackgroundColor=#ffffff;verticalAlign=top;html=1;outlineConnect=0;" vertex="1" parent="1">
          <mxGeometry x="100" y="570" width="30" height="60" as="geometry"/>
        </mxCell>
        <mxCell id="69_leHM3C10nOmQzFwsW-12" value="" style="rounded=0;orthogonalLoop=1;jettySize=auto;html=1;startArrow=none;startFill=0;endArrow=classic;endFill=1;" edge="1" parent="1" source="69_leHM3C10nOmQzFwsW-10" target="69_leHM3C10nOmQzFwsW-11">
          <mxGeometry relative="1" as="geometry"/>
        </mxCell>
        <mxCell id="69_leHM3C10nOmQzFwsW-15" style="rounded=0;orthogonalLoop=1;jettySize=auto;html=1;startArrow=classic;startFill=1;endArrow=none;endFill=0;entryX=0.5;entryY=0;entryDx=0;entryDy=0;" edge="1" parent="1" source="69_leHM3C10nOmQzFwsW-10" target="69_leHM3C10nOmQzFwsW-16">
          <mxGeometry relative="1" as="geometry">
            <mxPoint x="360" y="350" as="targetPoint"/>
          </mxGeometry>
        </mxCell>
        <mxCell id="69_leHM3C10nOmQzFwsW-18" style="edgeStyle=none;rounded=0;orthogonalLoop=1;jettySize=auto;html=1;entryX=0.058;entryY=0.763;entryDx=0;entryDy=0;entryPerimeter=0;startArrow=classic;startFill=1;endArrow=none;endFill=0;" edge="1" parent="1" source="69_leHM3C10nOmQzFwsW-10" target="69_leHM3C10nOmQzFwsW-17">
          <mxGeometry relative="1" as="geometry"/>
        </mxCell>
        <mxCell id="69_leHM3C10nOmQzFwsW-10" value="Administración de clubes" style="ellipse;whiteSpace=wrap;html=1;" vertex="1" parent="1">
          <mxGeometry x="270" y="157" width="120" height="80" as="geometry"/>
        </mxCell>
        <mxCell id="69_leHM3C10nOmQzFwsW-40" style="edgeStyle=none;rounded=0;orthogonalLoop=1;jettySize=auto;html=1;startArrow=classic;startFill=1;endArrow=none;endFill=0;entryX=0;entryY=0.5;entryDx=0;entryDy=0;" edge="1" parent="1" source="69_leHM3C10nOmQzFwsW-11" target="69_leHM3C10nOmQzFwsW-41">
          <mxGeometry relative="1" as="geometry">
            <mxPoint x="750" y="590" as="targetPoint"/>
          </mxGeometry>
        </mxCell>
        <mxCell id="69_leHM3C10nOmQzFwsW-43" style="edgeStyle=none;rounded=0;orthogonalLoop=1;jettySize=auto;html=1;exitX=1;exitY=0.5;exitDx=0;exitDy=0;startArrow=classic;startFill=1;endArrow=none;endFill=0;entryX=0.017;entryY=0.3;entryDx=0;entryDy=0;entryPerimeter=0;" edge="1" parent="1" source="69_leHM3C10nOmQzFwsW-11" target="69_leHM3C10nOmQzFwsW-44">
          <mxGeometry relative="1" as="geometry">
            <mxPoint x="740" y="670" as="targetPoint"/>
          </mxGeometry>
        </mxCell>
        <mxCell id="69_leHM3C10nOmQzFwsW-45" style="edgeStyle=none;rounded=0;orthogonalLoop=1;jettySize=auto;html=1;exitX=1;exitY=1;exitDx=0;exitDy=0;startArrow=classic;startFill=1;endArrow=none;endFill=0;entryX=0;entryY=0;entryDx=0;entryDy=0;" edge="1" parent="1" source="69_leHM3C10nOmQzFwsW-11" target="69_leHM3C10nOmQzFwsW-46">
          <mxGeometry relative="1" as="geometry">
            <mxPoint x="730" y="730" as="targetPoint"/>
          </mxGeometry>
        </mxCell>
        <mxCell id="69_leHM3C10nOmQzFwsW-48" style="edgeStyle=none;rounded=0;orthogonalLoop=1;jettySize=auto;html=1;exitX=0.5;exitY=1;exitDx=0;exitDy=0;startArrow=classic;startFill=1;endArrow=none;endFill=0;entryX=0.425;entryY=-0.012;entryDx=0;entryDy=0;entryPerimeter=0;" edge="1" parent="1" source="69_leHM3C10nOmQzFwsW-11" target="69_leHM3C10nOmQzFwsW-49">
          <mxGeometry relative="1" as="geometry">
            <mxPoint x="690" y="780" as="targetPoint"/>
          </mxGeometry>
        </mxCell>
        <mxCell id="69_leHM3C10nOmQzFwsW-50" style="edgeStyle=none;rounded=0;orthogonalLoop=1;jettySize=auto;html=1;exitX=0.5;exitY=0;exitDx=0;exitDy=0;startArrow=classic;startFill=1;endArrow=none;endFill=0;entryX=0;entryY=0.5;entryDx=0;entryDy=0;" edge="1" parent="1" source="69_leHM3C10nOmQzFwsW-11" target="69_leHM3C10nOmQzFwsW-51">
          <mxGeometry relative="1" as="geometry">
            <mxPoint x="740" y="540" as="targetPoint"/>
          </mxGeometry>
        </mxCell>
        <mxCell id="69_leHM3C10nOmQzFwsW-11" value="Gestión de grupos de lectura" style="ellipse;whiteSpace=wrap;html=1;" vertex="1" parent="1">
          <mxGeometry x="540" y="600" width="120" height="80" as="geometry"/>
        </mxCell>
        <mxCell id="69_leHM3C10nOmQzFwsW-54" style="edgeStyle=none;rounded=0;orthogonalLoop=1;jettySize=auto;html=1;startArrow=classic;startFill=1;endArrow=none;endFill=0;entryX=0;entryY=0.5;entryDx=0;entryDy=0;" edge="1" parent="1" source="69_leHM3C10nOmQzFwsW-16" target="69_leHM3C10nOmQzFwsW-55">
          <mxGeometry relative="1" as="geometry">
            <mxPoint x="590" y="930" as="targetPoint"/>
          </mxGeometry>
        </mxCell>
        <mxCell id="69_leHM3C10nOmQzFwsW-56" style="edgeStyle=none;rounded=0;orthogonalLoop=1;jettySize=auto;html=1;exitX=1;exitY=0.5;exitDx=0;exitDy=0;startArrow=classic;startFill=1;endArrow=none;endFill=0;entryX=-0.008;entryY=0.338;entryDx=0;entryDy=0;entryPerimeter=0;" edge="1" parent="1" source="69_leHM3C10nOmQzFwsW-16" target="69_leHM3C10nOmQzFwsW-57">
          <mxGeometry relative="1" as="geometry">
            <mxPoint x="590" y="970" as="targetPoint"/>
          </mxGeometry>
        </mxCell>
        <mxCell id="69_leHM3C10nOmQzFwsW-58" style="edgeStyle=none;rounded=0;orthogonalLoop=1;jettySize=auto;html=1;startArrow=classic;startFill=1;endArrow=none;endFill=0;entryX=0.058;entryY=0.188;entryDx=0;entryDy=0;entryPerimeter=0;" edge="1" parent="1" source="69_leHM3C10nOmQzFwsW-16" target="69_leHM3C10nOmQzFwsW-59">
          <mxGeometry relative="1" as="geometry">
            <mxPoint x="580" y="1070" as="targetPoint"/>
          </mxGeometry>
        </mxCell>
        <mxCell id="69_leHM3C10nOmQzFwsW-60" style="edgeStyle=none;rounded=0;orthogonalLoop=1;jettySize=auto;html=1;exitX=0.5;exitY=1;exitDx=0;exitDy=0;startArrow=classic;startFill=1;endArrow=none;endFill=0;entryX=0;entryY=0;entryDx=0;entryDy=0;" edge="1" parent="1" source="69_leHM3C10nOmQzFwsW-16" target="69_leHM3C10nOmQzFwsW-61">
          <mxGeometry relative="1" as="geometry">
            <mxPoint x="550" y="1140" as="targetPoint"/>
          </mxGeometry>
        </mxCell>
        <mxCell id="69_leHM3C10nOmQzFwsW-16" value="Gestión de libros" style="ellipse;whiteSpace=wrap;html=1;" vertex="1" parent="1">
          <mxGeometry x="340" y="920" width="120" height="80" as="geometry"/>
        </mxCell>
        <mxCell id="69_leHM3C10nOmQzFwsW-22" value="" style="edgeStyle=none;rounded=0;orthogonalLoop=1;jettySize=auto;html=1;startArrow=classic;startFill=1;endArrow=none;endFill=0;" edge="1" parent="1" source="69_leHM3C10nOmQzFwsW-17" target="69_leHM3C10nOmQzFwsW-21">
          <mxGeometry relative="1" as="geometry"/>
        </mxCell>
        <mxCell id="69_leHM3C10nOmQzFwsW-23" style="edgeStyle=none;rounded=0;orthogonalLoop=1;jettySize=auto;html=1;startArrow=classic;startFill=1;endArrow=none;endFill=0;" edge="1" parent="1" source="69_leHM3C10nOmQzFwsW-17">
          <mxGeometry relative="1" as="geometry">
            <mxPoint x="660" y="10" as="targetPoint"/>
          </mxGeometry>
        </mxCell>
        <mxCell id="69_leHM3C10nOmQzFwsW-25" style="edgeStyle=none;rounded=0;orthogonalLoop=1;jettySize=auto;html=1;startArrow=classic;startFill=1;endArrow=none;endFill=0;entryX=0;entryY=0.625;entryDx=0;entryDy=0;entryPerimeter=0;" edge="1" parent="1" source="69_leHM3C10nOmQzFwsW-17" target="69_leHM3C10nOmQzFwsW-26">
          <mxGeometry relative="1" as="geometry">
            <mxPoint x="650" y="-60" as="targetPoint"/>
          </mxGeometry>
        </mxCell>
        <mxCell id="69_leHM3C10nOmQzFwsW-31" style="edgeStyle=none;rounded=0;orthogonalLoop=1;jettySize=auto;html=1;exitX=1;exitY=1;exitDx=0;exitDy=0;startArrow=classic;startFill=1;endArrow=none;endFill=0;entryX=0;entryY=0.325;entryDx=0;entryDy=0;entryPerimeter=0;" edge="1" parent="1" source="69_leHM3C10nOmQzFwsW-17" target="69_leHM3C10nOmQzFwsW-32">
          <mxGeometry relative="1" as="geometry">
            <mxPoint x="720" y="140" as="targetPoint"/>
          </mxGeometry>
        </mxCell>
        <mxCell id="69_leHM3C10nOmQzFwsW-33" style="edgeStyle=none;rounded=0;orthogonalLoop=1;jettySize=auto;html=1;startArrow=classic;startFill=1;endArrow=none;endFill=0;entryX=0.092;entryY=0.15;entryDx=0;entryDy=0;entryPerimeter=0;" edge="1" parent="1" source="69_leHM3C10nOmQzFwsW-17" target="69_leHM3C10nOmQzFwsW-34">
          <mxGeometry relative="1" as="geometry">
            <mxPoint x="710" y="250" as="targetPoint"/>
          </mxGeometry>
        </mxCell>
        <mxCell id="69_leHM3C10nOmQzFwsW-35" style="edgeStyle=none;rounded=0;orthogonalLoop=1;jettySize=auto;html=1;startArrow=classic;startFill=1;endArrow=none;endFill=0;entryX=0.45;entryY=-0.025;entryDx=0;entryDy=0;entryPerimeter=0;" edge="1" parent="1" source="69_leHM3C10nOmQzFwsW-17" target="69_leHM3C10nOmQzFwsW-36">
          <mxGeometry relative="1" as="geometry">
            <mxPoint x="680" y="310" as="targetPoint"/>
          </mxGeometry>
        </mxCell>
        <mxCell id="69_leHM3C10nOmQzFwsW-38" style="edgeStyle=none;rounded=0;orthogonalLoop=1;jettySize=auto;html=1;startArrow=classic;startFill=1;endArrow=none;endFill=0;entryX=0;entryY=0;entryDx=0;entryDy=0;" edge="1" parent="1" source="69_leHM3C10nOmQzFwsW-17" target="69_leHM3C10nOmQzFwsW-39">
          <mxGeometry relative="1" as="geometry">
            <mxPoint x="700" y="410" as="targetPoint"/>
          </mxGeometry>
        </mxCell>
        <mxCell id="69_leHM3C10nOmQzFwsW-52" style="edgeStyle=none;rounded=0;orthogonalLoop=1;jettySize=auto;html=1;exitX=0.5;exitY=0;exitDx=0;exitDy=0;startArrow=classic;startFill=1;endArrow=none;endFill=0;entryX=0.425;entryY=1.05;entryDx=0;entryDy=0;entryPerimeter=0;" edge="1" parent="1" source="69_leHM3C10nOmQzFwsW-17" target="69_leHM3C10nOmQzFwsW-53">
          <mxGeometry relative="1" as="geometry">
            <mxPoint x="540" y="-70" as="targetPoint"/>
          </mxGeometry>
        </mxCell>
        <mxCell id="69_leHM3C10nOmQzFwsW-17" value="Gestión de miembros" style="ellipse;whiteSpace=wrap;html=1;" vertex="1" parent="1">
          <mxGeometry x="470" y="40" width="120" height="80" as="geometry"/>
        </mxCell>
        <mxCell id="69_leHM3C10nOmQzFwsW-27" style="edgeStyle=none;rounded=0;orthogonalLoop=1;jettySize=auto;html=1;startArrow=classic;startFill=1;endArrow=none;endFill=0;entryX=-0.017;entryY=0.375;entryDx=0;entryDy=0;entryPerimeter=0;" edge="1" parent="1" source="69_leHM3C10nOmQzFwsW-21" target="69_leHM3C10nOmQzFwsW-28">
          <mxGeometry relative="1" as="geometry">
            <mxPoint x="990" y="80" as="targetPoint"/>
          </mxGeometry>
        </mxCell>
        <mxCell id="69_leHM3C10nOmQzFwsW-29" style="edgeStyle=none;rounded=0;orthogonalLoop=1;jettySize=auto;html=1;startArrow=classic;startFill=1;endArrow=none;endFill=0;entryX=-0.017;entryY=0.65;entryDx=0;entryDy=0;entryPerimeter=0;" edge="1" parent="1" source="69_leHM3C10nOmQzFwsW-21" target="69_leHM3C10nOmQzFwsW-30">
          <mxGeometry relative="1" as="geometry">
            <mxPoint x="970" y="20" as="targetPoint"/>
          </mxGeometry>
        </mxCell>
        <mxCell id="69_leHM3C10nOmQzFwsW-21" value="Gestión de histórico de miembros" style="ellipse;whiteSpace=wrap;html=1;" vertex="1" parent="1">
          <mxGeometry x="750" y="40" width="120" height="80" as="geometry"/>
        </mxCell>
        <mxCell id="69_leHM3C10nOmQzFwsW-86" style="edgeStyle=none;rounded=0;orthogonalLoop=1;jettySize=auto;html=1;startArrow=classic;startFill=1;endArrow=none;endFill=0;" edge="1" parent="1" source="69_leHM3C10nOmQzFwsW-19">
          <mxGeometry relative="1" as="geometry">
            <mxPoint x="450" y="2520" as="targetPoint"/>
          </mxGeometry>
        </mxCell>
        <mxCell id="69_leHM3C10nOmQzFwsW-88" style="edgeStyle=none;rounded=0;orthogonalLoop=1;jettySize=auto;html=1;exitX=1;exitY=0.5;exitDx=0;exitDy=0;startArrow=classic;startFill=1;endArrow=none;endFill=0;entryX=0;entryY=0.5;entryDx=0;entryDy=0;" edge="1" parent="1" source="69_leHM3C10nOmQzFwsW-19" target="69_leHM3C10nOmQzFwsW-89">
          <mxGeometry relative="1" as="geometry">
            <mxPoint x="450" y="2590" as="targetPoint"/>
          </mxGeometry>
        </mxCell>
        <mxCell id="69_leHM3C10nOmQzFwsW-90" style="edgeStyle=none;rounded=0;orthogonalLoop=1;jettySize=auto;html=1;exitX=1;exitY=1;exitDx=0;exitDy=0;startArrow=classic;startFill=1;endArrow=none;endFill=0;entryX=-0.008;entryY=0.325;entryDx=0;entryDy=0;entryPerimeter=0;" edge="1" parent="1" source="69_leHM3C10nOmQzFwsW-19" target="69_leHM3C10nOmQzFwsW-91">
          <mxGeometry relative="1" as="geometry">
            <mxPoint x="450" y="2650" as="targetPoint"/>
          </mxGeometry>
        </mxCell>
        <mxCell id="69_leHM3C10nOmQzFwsW-92" style="edgeStyle=none;rounded=0;orthogonalLoop=1;jettySize=auto;html=1;startArrow=classic;startFill=1;endArrow=none;endFill=0;entryX=-0.025;entryY=0.375;entryDx=0;entryDy=0;entryPerimeter=0;" edge="1" parent="1" source="69_leHM3C10nOmQzFwsW-19" target="69_leHM3C10nOmQzFwsW-93">
          <mxGeometry relative="1" as="geometry">
            <mxPoint x="410" y="2750" as="targetPoint"/>
          </mxGeometry>
        </mxCell>
        <mxCell id="69_leHM3C10nOmQzFwsW-94" style="edgeStyle=none;rounded=0;orthogonalLoop=1;jettySize=auto;html=1;exitX=0.5;exitY=1;exitDx=0;exitDy=0;startArrow=classic;startFill=1;endArrow=none;endFill=0;entryX=0;entryY=0.5;entryDx=0;entryDy=0;" edge="1" parent="1" source="69_leHM3C10nOmQzFwsW-19" target="69_leHM3C10nOmQzFwsW-95">
          <mxGeometry relative="1" as="geometry">
            <mxPoint x="410" y="2851" as="targetPoint"/>
          </mxGeometry>
        </mxCell>
        <mxCell id="69_leHM3C10nOmQzFwsW-19" value="Gestión de reuniones" style="ellipse;whiteSpace=wrap;html=1;" vertex="1" parent="1">
          <mxGeometry x="230" y="2550" width="120" height="80" as="geometry"/>
        </mxCell>
        <mxCell id="69_leHM3C10nOmQzFwsW-62" style="edgeStyle=none;rounded=0;orthogonalLoop=1;jettySize=auto;html=1;startArrow=classic;startFill=1;endArrow=none;endFill=0;entryX=0;entryY=0.5;entryDx=0;entryDy=0;" edge="1" parent="1" source="69_leHM3C10nOmQzFwsW-20" target="69_leHM3C10nOmQzFwsW-63">
          <mxGeometry relative="1" as="geometry">
            <mxPoint x="450" y="1410" as="targetPoint"/>
          </mxGeometry>
        </mxCell>
        <mxCell id="69_leHM3C10nOmQzFwsW-64" style="edgeStyle=none;rounded=0;orthogonalLoop=1;jettySize=auto;html=1;exitX=1;exitY=0.5;exitDx=0;exitDy=0;startArrow=classic;startFill=1;endArrow=none;endFill=0;entryX=0;entryY=0.5;entryDx=0;entryDy=0;" edge="1" parent="1" source="69_leHM3C10nOmQzFwsW-20" target="69_leHM3C10nOmQzFwsW-65">
          <mxGeometry relative="1" as="geometry">
            <mxPoint x="450" y="1470" as="targetPoint"/>
          </mxGeometry>
        </mxCell>
        <mxCell id="69_leHM3C10nOmQzFwsW-66" style="edgeStyle=none;rounded=0;orthogonalLoop=1;jettySize=auto;html=1;exitX=1;exitY=1;exitDx=0;exitDy=0;startArrow=classic;startFill=1;endArrow=none;endFill=0;entryX=0;entryY=0.5;entryDx=0;entryDy=0;" edge="1" parent="1" source="69_leHM3C10nOmQzFwsW-20" target="69_leHM3C10nOmQzFwsW-67">
          <mxGeometry relative="1" as="geometry">
            <mxPoint x="460" y="1560" as="targetPoint"/>
          </mxGeometry>
        </mxCell>
        <mxCell id="69_leHM3C10nOmQzFwsW-68" style="edgeStyle=none;rounded=0;orthogonalLoop=1;jettySize=auto;html=1;startArrow=classic;startFill=1;endArrow=none;endFill=0;entryX=0;entryY=0;entryDx=0;entryDy=0;" edge="1" parent="1" source="69_leHM3C10nOmQzFwsW-20" target="69_leHM3C10nOmQzFwsW-69">
          <mxGeometry relative="1" as="geometry">
            <mxPoint x="440" y="1640" as="targetPoint"/>
          </mxGeometry>
        </mxCell>
        <mxCell id="69_leHM3C10nOmQzFwsW-70" style="edgeStyle=none;rounded=0;orthogonalLoop=1;jettySize=auto;html=1;startArrow=classic;startFill=1;endArrow=none;endFill=0;entryX=0;entryY=0.313;entryDx=0;entryDy=0;entryPerimeter=0;" edge="1" parent="1" source="69_leHM3C10nOmQzFwsW-20" target="69_leHM3C10nOmQzFwsW-71">
          <mxGeometry relative="1" as="geometry">
            <mxPoint x="450" y="1770" as="targetPoint"/>
          </mxGeometry>
        </mxCell>
        <mxCell id="69_leHM3C10nOmQzFwsW-76" style="edgeStyle=none;rounded=0;orthogonalLoop=1;jettySize=auto;html=1;startArrow=classic;startFill=1;endArrow=none;endFill=0;entryX=-0.008;entryY=0.363;entryDx=0;entryDy=0;entryPerimeter=0;" edge="1" parent="1" source="69_leHM3C10nOmQzFwsW-20" target="69_leHM3C10nOmQzFwsW-77">
          <mxGeometry relative="1" as="geometry">
            <mxPoint x="420" y="1892" as="targetPoint"/>
          </mxGeometry>
        </mxCell>
        <mxCell id="69_leHM3C10nOmQzFwsW-20" value="Gestión de obras actuadas" style="ellipse;whiteSpace=wrap;html=1;" vertex="1" parent="1">
          <mxGeometry x="240" y="1430" width="120" height="80" as="geometry"/>
        </mxCell>
        <mxCell id="69_leHM3C10nOmQzFwsW-24" value="Pagar membresía" style="ellipse;whiteSpace=wrap;html=1;" vertex="1" parent="1">
          <mxGeometry x="660" y="-40" width="120" height="80" as="geometry"/>
        </mxCell>
        <mxCell id="69_leHM3C10nOmQzFwsW-26" value="Dar de baja membresía" style="ellipse;whiteSpace=wrap;html=1;" vertex="1" parent="1">
          <mxGeometry x="650" y="-150" width="120" height="80" as="geometry"/>
        </mxCell>
        <mxCell id="69_leHM3C10nOmQzFwsW-28" value="Consultar histórico de pago membresía" style="ellipse;whiteSpace=wrap;html=1;" vertex="1" parent="1">
          <mxGeometry x="980" y="70" width="120" height="80" as="geometry"/>
        </mxCell>
        <mxCell id="69_leHM3C10nOmQzFwsW-30" value="Consultar histórico de clubes miembro" style="ellipse;whiteSpace=wrap;html=1;" vertex="1" parent="1">
          <mxGeometry x="970" y="-40" width="120" height="80" as="geometry"/>
        </mxCell>
        <mxCell id="69_leHM3C10nOmQzFwsW-32" value="Agregar miembro" style="ellipse;whiteSpace=wrap;html=1;" vertex="1" parent="1">
          <mxGeometry x="770" y="130" width="120" height="80" as="geometry"/>
        </mxCell>
        <mxCell id="69_leHM3C10nOmQzFwsW-34" value="Modificar miembro" style="ellipse;whiteSpace=wrap;html=1;" vertex="1" parent="1">
          <mxGeometry x="760" y="220" width="120" height="80" as="geometry"/>
        </mxCell>
        <mxCell id="69_leHM3C10nOmQzFwsW-36" value="Eliminar miembro" style="ellipse;whiteSpace=wrap;html=1;" vertex="1" parent="1">
          <mxGeometry x="710" y="300" width="120" height="80" as="geometry"/>
        </mxCell>
        <mxCell id="69_leHM3C10nOmQzFwsW-39" value="Consultar miembro" style="ellipse;whiteSpace=wrap;html=1;" vertex="1" parent="1">
          <mxGeometry x="690" y="390" width="120" height="80" as="geometry"/>
        </mxCell>
        <mxCell id="69_leHM3C10nOmQzFwsW-41" value="Agregar grupo" style="ellipse;whiteSpace=wrap;html=1;" vertex="1" parent="1">
          <mxGeometry x="900" y="570" width="120" height="80" as="geometry"/>
        </mxCell>
        <mxCell id="69_leHM3C10nOmQzFwsW-44" value="Modificar grupo" style="ellipse;whiteSpace=wrap;html=1;" vertex="1" parent="1">
          <mxGeometry x="740" y="640" width="120" height="80" as="geometry"/>
        </mxCell>
        <mxCell id="69_leHM3C10nOmQzFwsW-46" value="Eliminar grupo" style="ellipse;whiteSpace=wrap;html=1;" vertex="1" parent="1">
          <mxGeometry x="710" y="720" width="120" height="80" as="geometry"/>
        </mxCell>
        <mxCell id="69_leHM3C10nOmQzFwsW-49" value="Consultar grupo" style="ellipse;whiteSpace=wrap;html=1;" vertex="1" parent="1">
          <mxGeometry x="610" y="780" width="120" height="80" as="geometry"/>
        </mxCell>
        <mxCell id="69_leHM3C10nOmQzFwsW-51" value="Afiliarse a un grupo" style="ellipse;whiteSpace=wrap;html=1;" vertex="1" parent="1">
          <mxGeometry x="770" y="500" width="120" height="80" as="geometry"/>
        </mxCell>
        <mxCell id="69_leHM3C10nOmQzFwsW-112" style="edgeStyle=none;rounded=0;orthogonalLoop=1;jettySize=auto;html=1;exitX=1;exitY=0;exitDx=0;exitDy=0;startArrow=classic;startFill=1;endArrow=none;endFill=0;entryX=0;entryY=0.5;entryDx=0;entryDy=0;" edge="1" parent="1" source="69_leHM3C10nOmQzFwsW-53" target="69_leHM3C10nOmQzFwsW-113">
          <mxGeometry relative="1" as="geometry">
            <mxPoint x="680" y="-220" as="targetPoint"/>
          </mxGeometry>
        </mxCell>
        <mxCell id="69_leHM3C10nOmQzFwsW-53" value="Afiliarse a un club" style="ellipse;whiteSpace=wrap;html=1;" vertex="1" parent="1">
          <mxGeometry x="480" y="-240" width="120" height="80" as="geometry"/>
        </mxCell>
        <mxCell id="69_leHM3C10nOmQzFwsW-55" value="Agregar libro" style="ellipse;whiteSpace=wrap;html=1;" vertex="1" parent="1">
          <mxGeometry x="590" y="880" width="120" height="80" as="geometry"/>
        </mxCell>
        <mxCell id="69_leHM3C10nOmQzFwsW-57" value="Modificar libro" style="ellipse;whiteSpace=wrap;html=1;" vertex="1" parent="1">
          <mxGeometry x="590" y="970" width="120" height="80" as="geometry"/>
        </mxCell>
        <mxCell id="69_leHM3C10nOmQzFwsW-59" value="Eliminar libro" style="ellipse;whiteSpace=wrap;html=1;" vertex="1" parent="1">
          <mxGeometry x="580" y="1070" width="120" height="80" as="geometry"/>
        </mxCell>
        <mxCell id="69_leHM3C10nOmQzFwsW-61" value="Consultar libro" style="ellipse;whiteSpace=wrap;html=1;" vertex="1" parent="1">
          <mxGeometry x="580" y="1170" width="120" height="80" as="geometry"/>
        </mxCell>
        <mxCell id="69_leHM3C10nOmQzFwsW-63" value="Agregar obra" style="ellipse;whiteSpace=wrap;html=1;" vertex="1" parent="1">
          <mxGeometry x="460" y="1360" width="120" height="80" as="geometry"/>
        </mxCell>
        <mxCell id="69_leHM3C10nOmQzFwsW-65" value="Modificar obra" style="ellipse;whiteSpace=wrap;html=1;" vertex="1" parent="1">
          <mxGeometry x="460" y="1450" width="120" height="80" as="geometry"/>
        </mxCell>
        <mxCell id="69_leHM3C10nOmQzFwsW-67" value="Eliminar obra" style="ellipse;whiteSpace=wrap;html=1;" vertex="1" parent="1">
          <mxGeometry x="460" y="1540" width="120" height="80" as="geometry"/>
        </mxCell>
        <mxCell id="69_leHM3C10nOmQzFwsW-69" value="Consultar obra" style="ellipse;whiteSpace=wrap;html=1;" vertex="1" parent="1">
          <mxGeometry x="460" y="1650" width="120" height="80" as="geometry"/>
        </mxCell>
        <mxCell id="69_leHM3C10nOmQzFwsW-72" style="edgeStyle=none;rounded=0;orthogonalLoop=1;jettySize=auto;html=1;startArrow=classic;startFill=1;endArrow=none;endFill=0;entryX=0;entryY=0.5;entryDx=0;entryDy=0;" edge="1" parent="1" source="69_leHM3C10nOmQzFwsW-71" target="69_leHM3C10nOmQzFwsW-73">
          <mxGeometry relative="1" as="geometry">
            <mxPoint x="680" y="1750" as="targetPoint"/>
          </mxGeometry>
        </mxCell>
        <mxCell id="69_leHM3C10nOmQzFwsW-74" style="edgeStyle=none;rounded=0;orthogonalLoop=1;jettySize=auto;html=1;startArrow=classic;startFill=1;endArrow=none;endFill=0;" edge="1" parent="1" source="69_leHM3C10nOmQzFwsW-71" target="69_leHM3C10nOmQzFwsW-75">
          <mxGeometry relative="1" as="geometry">
            <mxPoint x="670" y="1800" as="targetPoint"/>
          </mxGeometry>
        </mxCell>
        <mxCell id="69_leHM3C10nOmQzFwsW-71" value="Valoración obra" style="ellipse;whiteSpace=wrap;html=1;" vertex="1" parent="1">
          <mxGeometry x="460" y="1760" width="120" height="80" as="geometry"/>
        </mxCell>
        <mxCell id="69_leHM3C10nOmQzFwsW-73" value="Calificar obra" style="ellipse;whiteSpace=wrap;html=1;" vertex="1" parent="1">
          <mxGeometry x="680" y="1700" width="120" height="80" as="geometry"/>
        </mxCell>
        <mxCell id="69_leHM3C10nOmQzFwsW-75" value="Votación por el mejor personaje" style="ellipse;whiteSpace=wrap;html=1;" vertex="1" parent="1">
          <mxGeometry x="680" y="1790" width="120" height="80" as="geometry"/>
        </mxCell>
        <mxCell id="69_leHM3C10nOmQzFwsW-78" style="edgeStyle=none;rounded=0;orthogonalLoop=1;jettySize=auto;html=1;exitX=1;exitY=0.5;exitDx=0;exitDy=0;startArrow=classic;startFill=1;endArrow=none;endFill=0;entryX=0.008;entryY=0.65;entryDx=0;entryDy=0;entryPerimeter=0;" edge="1" parent="1" source="69_leHM3C10nOmQzFwsW-77" target="69_leHM3C10nOmQzFwsW-79">
          <mxGeometry relative="1" as="geometry">
            <mxPoint x="680" y="1950" as="targetPoint"/>
          </mxGeometry>
        </mxCell>
        <mxCell id="69_leHM3C10nOmQzFwsW-80" style="edgeStyle=none;rounded=0;orthogonalLoop=1;jettySize=auto;html=1;exitX=1;exitY=0.5;exitDx=0;exitDy=0;startArrow=classic;startFill=1;endArrow=none;endFill=0;entryX=0.025;entryY=0.363;entryDx=0;entryDy=0;entryPerimeter=0;" edge="1" parent="1" source="69_leHM3C10nOmQzFwsW-77" target="69_leHM3C10nOmQzFwsW-81">
          <mxGeometry relative="1" as="geometry">
            <mxPoint x="680" y="2030" as="targetPoint"/>
          </mxGeometry>
        </mxCell>
        <mxCell id="69_leHM3C10nOmQzFwsW-82" style="edgeStyle=none;rounded=0;orthogonalLoop=1;jettySize=auto;html=1;startArrow=classic;startFill=1;endArrow=none;endFill=0;entryX=0;entryY=0.375;entryDx=0;entryDy=0;entryPerimeter=0;" edge="1" parent="1" source="69_leHM3C10nOmQzFwsW-77" target="69_leHM3C10nOmQzFwsW-83">
          <mxGeometry relative="1" as="geometry">
            <mxPoint x="660" y="2110" as="targetPoint"/>
          </mxGeometry>
        </mxCell>
        <mxCell id="69_leHM3C10nOmQzFwsW-84" style="edgeStyle=none;rounded=0;orthogonalLoop=1;jettySize=auto;html=1;exitX=0.5;exitY=1;exitDx=0;exitDy=0;startArrow=classic;startFill=1;endArrow=none;endFill=0;entryX=0;entryY=0.5;entryDx=0;entryDy=0;" edge="1" parent="1" source="69_leHM3C10nOmQzFwsW-77" target="69_leHM3C10nOmQzFwsW-85">
          <mxGeometry relative="1" as="geometry">
            <mxPoint x="690" y="2230" as="targetPoint"/>
          </mxGeometry>
        </mxCell>
        <mxCell id="69_leHM3C10nOmQzFwsW-77" value="Gestión de participaciones en obra" style="ellipse;whiteSpace=wrap;html=1;" vertex="1" parent="1">
          <mxGeometry x="450" y="1940" width="120" height="80" as="geometry"/>
        </mxCell>
        <mxCell id="69_leHM3C10nOmQzFwsW-79" value="Agregar personaje" style="ellipse;whiteSpace=wrap;html=1;" vertex="1" parent="1">
          <mxGeometry x="680" y="1910" width="120" height="80" as="geometry"/>
        </mxCell>
        <mxCell id="69_leHM3C10nOmQzFwsW-81" value="Modificar personaje" style="ellipse;whiteSpace=wrap;html=1;" vertex="1" parent="1">
          <mxGeometry x="680" y="2010" width="120" height="80" as="geometry"/>
        </mxCell>
        <mxCell id="69_leHM3C10nOmQzFwsW-83" value="Eliminar personaje" style="ellipse;whiteSpace=wrap;html=1;" vertex="1" parent="1">
          <mxGeometry x="690" y="2100" width="120" height="80" as="geometry"/>
        </mxCell>
        <mxCell id="69_leHM3C10nOmQzFwsW-85" value="Consultar personaje" style="ellipse;whiteSpace=wrap;html=1;" vertex="1" parent="1">
          <mxGeometry x="690" y="2210" width="120" height="80" as="geometry"/>
        </mxCell>
        <mxCell id="69_leHM3C10nOmQzFwsW-87" value="Agregar reunión" style="ellipse;whiteSpace=wrap;html=1;" vertex="1" parent="1">
          <mxGeometry x="450" y="2470" width="120" height="80" as="geometry"/>
        </mxCell>
        <mxCell id="69_leHM3C10nOmQzFwsW-89" value="Modificar reunión" style="ellipse;whiteSpace=wrap;html=1;" vertex="1" parent="1">
          <mxGeometry x="450" y="2550" width="120" height="80" as="geometry"/>
        </mxCell>
        <mxCell id="69_leHM3C10nOmQzFwsW-91" value="Cancelar reunión" style="ellipse;whiteSpace=wrap;html=1;" vertex="1" parent="1">
          <mxGeometry x="450" y="2640" width="120" height="80" as="geometry"/>
        </mxCell>
        <mxCell id="69_leHM3C10nOmQzFwsW-93" value="Control de asistencia a reunión" style="ellipse;whiteSpace=wrap;html=1;" vertex="1" parent="1">
          <mxGeometry x="450" y="2740" width="120" height="80" as="geometry"/>
        </mxCell>
        <mxCell id="69_leHM3C10nOmQzFwsW-96" style="edgeStyle=none;rounded=0;orthogonalLoop=1;jettySize=auto;html=1;startArrow=none;startFill=0;endArrow=classic;endFill=1;entryX=0;entryY=0.5;entryDx=0;entryDy=0;" edge="1" parent="1" source="69_leHM3C10nOmQzFwsW-95" target="69_leHM3C10nOmQzFwsW-97">
          <mxGeometry relative="1" as="geometry">
            <mxPoint x="660" y="2850" as="targetPoint"/>
          </mxGeometry>
        </mxCell>
        <mxCell id="69_leHM3C10nOmQzFwsW-95" value="Unirse a reunión" style="ellipse;whiteSpace=wrap;html=1;" vertex="1" parent="1">
          <mxGeometry x="440" y="2840" width="120" height="80" as="geometry"/>
        </mxCell>
        <mxCell id="69_leHM3C10nOmQzFwsW-98" style="edgeStyle=none;rounded=0;orthogonalLoop=1;jettySize=auto;html=1;exitX=1;exitY=0.5;exitDx=0;exitDy=0;startArrow=classic;startFill=1;endArrow=none;endFill=0;entryX=0;entryY=0.5;entryDx=0;entryDy=0;" edge="1" parent="1" source="69_leHM3C10nOmQzFwsW-97">
          <mxGeometry relative="1" as="geometry">
            <mxPoint x="870" y="2840" as="targetPoint"/>
          </mxGeometry>
        </mxCell>
        <mxCell id="69_leHM3C10nOmQzFwsW-100" style="edgeStyle=none;rounded=0;orthogonalLoop=1;jettySize=auto;html=1;exitX=1;exitY=0;exitDx=0;exitDy=0;startArrow=classic;startFill=1;endArrow=none;endFill=0;entryX=0.008;entryY=0.625;entryDx=0;entryDy=0;entryPerimeter=0;" edge="1" parent="1" source="69_leHM3C10nOmQzFwsW-97" target="69_leHM3C10nOmQzFwsW-102">
          <mxGeometry relative="1" as="geometry">
            <mxPoint x="860" y="2780" as="targetPoint"/>
          </mxGeometry>
        </mxCell>
        <mxCell id="69_leHM3C10nOmQzFwsW-97" value="Cierre de discusión" style="ellipse;whiteSpace=wrap;html=1;" vertex="1" parent="1">
          <mxGeometry x="660" y="2800" width="120" height="80" as="geometry"/>
        </mxCell>
        <mxCell id="69_leHM3C10nOmQzFwsW-104" style="edgeStyle=none;rounded=0;orthogonalLoop=1;jettySize=auto;html=1;exitX=1;exitY=0;exitDx=0;exitDy=0;startArrow=classic;startFill=1;endArrow=none;endFill=0;entryX=0;entryY=0.425;entryDx=0;entryDy=0;entryPerimeter=0;" edge="1" parent="1" source="69_leHM3C10nOmQzFwsW-101" target="69_leHM3C10nOmQzFwsW-105">
          <mxGeometry relative="1" as="geometry">
            <mxPoint x="1040" y="2790" as="targetPoint"/>
          </mxGeometry>
        </mxCell>
        <mxCell id="69_leHM3C10nOmQzFwsW-106" style="edgeStyle=none;rounded=0;orthogonalLoop=1;jettySize=auto;html=1;exitX=1;exitY=0.5;exitDx=0;exitDy=0;startArrow=classic;startFill=1;endArrow=none;endFill=0;entryX=0;entryY=0.375;entryDx=0;entryDy=0;entryPerimeter=0;" edge="1" parent="1" source="69_leHM3C10nOmQzFwsW-101" target="69_leHM3C10nOmQzFwsW-107">
          <mxGeometry relative="1" as="geometry">
            <mxPoint x="1060" y="2840" as="targetPoint"/>
          </mxGeometry>
        </mxCell>
        <mxCell id="69_leHM3C10nOmQzFwsW-108" style="edgeStyle=none;rounded=0;orthogonalLoop=1;jettySize=auto;html=1;exitX=1;exitY=1;exitDx=0;exitDy=0;startArrow=classic;startFill=1;endArrow=none;endFill=0;entryX=0.025;entryY=0.388;entryDx=0;entryDy=0;entryPerimeter=0;" edge="1" parent="1" source="69_leHM3C10nOmQzFwsW-101" target="69_leHM3C10nOmQzFwsW-109">
          <mxGeometry relative="1" as="geometry">
            <mxPoint x="1050" y="2950" as="targetPoint"/>
          </mxGeometry>
        </mxCell>
        <mxCell id="69_leHM3C10nOmQzFwsW-110" style="edgeStyle=none;rounded=0;orthogonalLoop=1;jettySize=auto;html=1;exitX=0.5;exitY=1;exitDx=0;exitDy=0;startArrow=classic;startFill=1;endArrow=none;endFill=0;entryX=0.042;entryY=0.338;entryDx=0;entryDy=0;entryPerimeter=0;" edge="1" parent="1" source="69_leHM3C10nOmQzFwsW-101" target="69_leHM3C10nOmQzFwsW-111">
          <mxGeometry relative="1" as="geometry">
            <mxPoint x="1050" y="3030" as="targetPoint"/>
          </mxGeometry>
        </mxCell>
        <mxCell id="69_leHM3C10nOmQzFwsW-101" value="Gestión de conclusiones" style="ellipse;whiteSpace=wrap;html=1;" vertex="1" parent="1">
          <mxGeometry x="870" y="2800" width="120" height="80" as="geometry"/>
        </mxCell>
        <mxCell id="69_leHM3C10nOmQzFwsW-102" value="Valoración libro" style="ellipse;whiteSpace=wrap;html=1;" vertex="1" parent="1">
          <mxGeometry x="860" y="2690" width="120" height="80" as="geometry"/>
        </mxCell>
        <mxCell id="69_leHM3C10nOmQzFwsW-105" value="Agregar conclusión" style="ellipse;whiteSpace=wrap;html=1;" vertex="1" parent="1">
          <mxGeometry x="1060" y="2740" width="120" height="80" as="geometry"/>
        </mxCell>
        <mxCell id="69_leHM3C10nOmQzFwsW-107" value="Modificar conclusión" style="ellipse;whiteSpace=wrap;html=1;" vertex="1" parent="1">
          <mxGeometry x="1060" y="2840" width="120" height="80" as="geometry"/>
        </mxCell>
        <mxCell id="69_leHM3C10nOmQzFwsW-109" value="Eliminar conclusión" style="ellipse;whiteSpace=wrap;html=1;" vertex="1" parent="1">
          <mxGeometry x="1060" y="2930" width="120" height="80" as="geometry"/>
        </mxCell>
        <mxCell id="69_leHM3C10nOmQzFwsW-111" value="Consultar conclusión" style="ellipse;whiteSpace=wrap;html=1;" vertex="1" parent="1">
          <mxGeometry x="1060" y="3030" width="120" height="80" as="geometry"/>
        </mxCell>
        <mxCell id="69_leHM3C10nOmQzFwsW-114" style="edgeStyle=none;rounded=0;orthogonalLoop=1;jettySize=auto;html=1;startArrow=none;startFill=0;endArrow=classic;endFill=1;" edge="1" parent="1" source="69_leHM3C10nOmQzFwsW-113">
          <mxGeometry relative="1" as="geometry">
            <mxPoint x="910" y="-230" as="targetPoint"/>
          </mxGeometry>
        </mxCell>
        <mxCell id="69_leHM3C10nOmQzFwsW-113" value="Afiliar representado a club" style="ellipse;whiteSpace=wrap;html=1;" vertex="1" parent="1">
          <mxGeometry x="680" y="-270" width="120" height="80" as="geometry"/>
        </mxCell>
        <mxCell id="69_leHM3C10nOmQzFwsW-115" value="Autorizar representado" style="ellipse;whiteSpace=wrap;html=1;" vertex="1" parent="1">
          <mxGeometry x="910" y="-270" width="120" height="80" as="geometry"/>
        </mxCell>
        <mxCell id="69_leHM3C10nOmQzFwsW-116" value="" style="endArrow=classic;html=1;entryX=0;entryY=0.638;entryDx=0;entryDy=0;entryPerimeter=0;" edge="1" parent="1" target="69_leHM3C10nOmQzFwsW-10">
          <mxGeometry width="50" height="50" relative="1" as="geometry">
            <mxPoint x="190" y="271" as="sourcePoint"/>
            <mxPoint x="240" y="221" as="targetPoint"/>
          </mxGeometry>
        </mxCell>
        <mxCell id="69_leHM3C10nOmQzFwsW-117" value="" style="endArrow=classic;html=1;entryX=0.5;entryY=0;entryDx=0;entryDy=0;" edge="1" parent="1" target="69_leHM3C10nOmQzFwsW-20">
          <mxGeometry width="50" height="50" relative="1" as="geometry">
            <mxPoint x="190" y="270" as="sourcePoint"/>
            <mxPoint x="280" y="218.03999999999996" as="targetPoint"/>
          </mxGeometry>
        </mxCell>
        <mxCell id="69_leHM3C10nOmQzFwsW-118" value="" style="endArrow=classic;html=1;entryX=0;entryY=0;entryDx=0;entryDy=0;" edge="1" parent="1" target="69_leHM3C10nOmQzFwsW-19">
          <mxGeometry width="50" height="50" relative="1" as="geometry">
            <mxPoint x="190" y="270" as="sourcePoint"/>
            <mxPoint x="300" y="1430" as="targetPoint"/>
          </mxGeometry>
        </mxCell>
      </root>
    </mxGraphModel>
  </diagram>
</mxfile>
